<?xml version="1.0" encoding="UTF-8" standalone="no"?>
<!-- Created with Inkscape (http://www.inkscape.org/) -->

<svg
   version="1.1"
   id="svg2"
   width="605.72784"
   height="451.24866"
   viewBox="0 0 605.72784 451.24866"
   xmlns="http://www.w3.org/2000/svg"
   xmlns:svg="http://www.w3.org/2000/svg">
  <defs
     id="defs6">
    <clipPath
       clipPathUnits="userSpaceOnUse"
       id="clipPath20">
      <path
         d="M 46.421875,45.3125 H 447.09588 v 285.924 H 46.421875 Z"
         id="path18" />
    </clipPath>
    <clipPath
       clipPathUnits="userSpaceOnUse"
       id="clipPath40">
      <path
         d="M 46.421875,45.3125 H 447.09588 v 285.924 H 46.421875 Z"
         id="path38" />
    </clipPath>
    <clipPath
       clipPathUnits="userSpaceOnUse"
       id="clipPath60">
      <path
         d="M 46.421875,45.3125 H 447.09588 v 285.924 H 46.421875 Z"
         id="path58" />
    </clipPath>
    <clipPath
       clipPathUnits="userSpaceOnUse"
       id="clipPath80">
      <path
         d="M 46.421875,45.3125 H 447.09588 v 285.924 H 46.421875 Z"
         id="path78" />
    </clipPath>
    <clipPath
       clipPathUnits="userSpaceOnUse"
       id="clipPath100">
      <path
         d="M 46.421875,45.3125 H 447.09588 v 285.924 H 46.421875 Z"
         id="path98" />
    </clipPath>
    <clipPath
       clipPathUnits="userSpaceOnUse"
       id="clipPath120">
      <path
         d="M 46.421875,45.3125 H 447.09588 v 285.924 H 46.421875 Z"
         id="path118" />
    </clipPath>
    <clipPath
       clipPathUnits="userSpaceOnUse"
       id="clipPath140">
      <path
         d="M 46.421875,45.3125 H 447.09588 v 285.924 H 46.421875 Z"
         id="path138" />
    </clipPath>
    <clipPath
       clipPathUnits="userSpaceOnUse"
       id="clipPath166">
      <path
         d="M 46.421875,45.3125 H 447.09588 v 285.924 H 46.421875 Z"
         id="path164" />
    </clipPath>
    <clipPath
       clipPathUnits="userSpaceOnUse"
       id="clipPath186">
      <path
         d="M 46.421875,45.3125 H 447.09588 v 285.924 H 46.421875 Z"
         id="path184" />
    </clipPath>
    <clipPath
       clipPathUnits="userSpaceOnUse"
       id="clipPath206">
      <path
         d="M 46.421875,45.3125 H 447.09588 v 285.924 H 46.421875 Z"
         id="path204" />
    </clipPath>
    <clipPath
       clipPathUnits="userSpaceOnUse"
       id="clipPath226">
      <path
         d="M 46.421875,45.3125 H 447.09588 v 285.924 H 46.421875 Z"
         id="path224" />
    </clipPath>
    <clipPath
       clipPathUnits="userSpaceOnUse"
       id="clipPath246">
      <path
         d="M 46.421875,45.3125 H 447.09588 v 285.924 H 46.421875 Z"
         id="path244" />
    </clipPath>
    <clipPath
       clipPathUnits="userSpaceOnUse"
       id="clipPath266">
      <path
         d="M 46.421875,45.3125 H 447.09588 v 285.924 H 46.421875 Z"
         id="path264" />
    </clipPath>
    <clipPath
       clipPathUnits="userSpaceOnUse"
       id="clipPath292">
      <path
         d="M 46.421875,45.3125 H 447.09588 v 285.924 H 46.421875 Z"
         id="path290" />
    </clipPath>
    <clipPath
       clipPathUnits="userSpaceOnUse"
       id="clipPath304">
      <path
         d="M -7.4,-7.4 H 7.4 V 7.4 H -7.4 Z"
         id="path302" />
    </clipPath>
    <clipPath
       clipPathUnits="userSpaceOnUse"
       id="clipPath316">
      <path
         d="M -7.4,-7.4 H 7.4 V 7.4 H -7.4 Z"
         id="path314" />
    </clipPath>
    <clipPath
       clipPathUnits="userSpaceOnUse"
       id="clipPath328">
      <path
         d="M -7.4,-7.4 H 7.4 V 7.4 H -7.4 Z"
         id="path326" />
    </clipPath>
    <clipPath
       clipPathUnits="userSpaceOnUse"
       id="clipPath340">
      <path
         d="M -7.4,-7.4 H 7.4 V 7.4 H -7.4 Z"
         id="path338" />
    </clipPath>
    <clipPath
       clipPathUnits="userSpaceOnUse"
       id="clipPath352">
      <path
         d="M -7.4,-7.4 H 7.4 V 7.4 H -7.4 Z"
         id="path350" />
    </clipPath>
    <clipPath
       clipPathUnits="userSpaceOnUse"
       id="clipPath364">
      <path
         d="M -7.4,-7.4 H 7.4 V 7.4 H -7.4 Z"
         id="path362" />
    </clipPath>
    <clipPath
       clipPathUnits="userSpaceOnUse"
       id="clipPath376">
      <path
         d="M -7.4,-7.4 H 7.4 V 7.4 H -7.4 Z"
         id="path374" />
    </clipPath>
    <clipPath
       clipPathUnits="userSpaceOnUse"
       id="clipPath388">
      <path
         d="M -7.4,-7.4 H 7.4 V 7.4 H -7.4 Z"
         id="path386" />
    </clipPath>
    <clipPath
       clipPathUnits="userSpaceOnUse"
       id="clipPath398">
      <path
         d="M 46.421875,45.3125 H 447.09588 v 285.924 H 46.421875 Z"
         id="path396" />
    </clipPath>
    <clipPath
       clipPathUnits="userSpaceOnUse"
       id="clipPath410">
      <path
         d="M -7.4,-7.4 H 7.4 V 7.4 H -7.4 Z"
         id="path408" />
    </clipPath>
    <clipPath
       clipPathUnits="userSpaceOnUse"
       id="clipPath422">
      <path
         d="M -7.4,-7.4 H 7.4 V 7.4 H -7.4 Z"
         id="path420" />
    </clipPath>
    <clipPath
       clipPathUnits="userSpaceOnUse"
       id="clipPath434">
      <path
         d="M -7.4,-7.4 H 7.4 V 7.4 H -7.4 Z"
         id="path432" />
    </clipPath>
    <clipPath
       clipPathUnits="userSpaceOnUse"
       id="clipPath446">
      <path
         d="M -7.4,-7.4 H 7.4 V 7.4 H -7.4 Z"
         id="path444" />
    </clipPath>
    <clipPath
       clipPathUnits="userSpaceOnUse"
       id="clipPath458">
      <path
         d="M -7.4,-7.4 H 7.4 V 7.4 H -7.4 Z"
         id="path456" />
    </clipPath>
    <clipPath
       clipPathUnits="userSpaceOnUse"
       id="clipPath470">
      <path
         d="M -7.4,-7.4 H 7.4 V 7.4 H -7.4 Z"
         id="path468" />
    </clipPath>
    <clipPath
       clipPathUnits="userSpaceOnUse"
       id="clipPath482">
      <path
         d="M -7.4,-7.4 H 7.4 V 7.4 H -7.4 Z"
         id="path480" />
    </clipPath>
    <clipPath
       clipPathUnits="userSpaceOnUse"
       id="clipPath494">
      <path
         d="M -7.4,-7.4 H 7.4 V 7.4 H -7.4 Z"
         id="path492" />
    </clipPath>
  </defs>
  <g
     id="g8"
     transform="matrix(1.3333333,0,0,-1.3333333,0,451.24867)">
    <path
       d="M 0,0 H 454.29587 V 338.4365 H 0 Z"
       style="fill:#ffffff;fill-opacity:1;fill-rule:nonzero;stroke:none"
       id="path10" />
    <path
       d="M 46.421875,45.3125 H 447.09587 v 285.924 H 46.421875 Z"
       style="fill:#ffffff;fill-opacity:1;fill-rule:nonzero;stroke:none"
       id="path12" />
    <g
       id="g14">
      <g
         id="g16"
         clip-path="url(#clipPath20)">
        <path
           d="m 93.191771,45.3125 v 285.924"
           style="fill:none;stroke:#808080;stroke-width:1.5;stroke-linecap:butt;stroke-linejoin:round;stroke-miterlimit:10;stroke-dasharray:1.5, 2.475;stroke-dashoffset:0;stroke-opacity:1"
           id="path22" />
      </g>
    </g>
    <g
       id="g24">
      <path
         d="m 93.191771,45.3125 v -4.8"
         style="fill:#262626;fill-opacity:1;fill-rule:nonzero;stroke:#262626;stroke-width:1;stroke-linecap:butt;stroke-linejoin:round;stroke-miterlimit:10;stroke-dasharray:none;stroke-opacity:1"
         id="path26" />
      <g
         id="g28"
         transform="translate(82.691771,28.684375)">
        <text
           xml:space="preserve"
           transform="scale(1,-1)"
           style="font-variant:normal;font-weight:normal;font-size:12px;font-family:'Times New Roman';-inkscape-font-specification:TimesNewRomanPSMT;writing-mode:lr-tb;fill:#262626;fill-opacity:1;fill-rule:nonzero;stroke:none"
           id="text32"><tspan
             x="0 6 12 15"
             y="0"
             id="tspan30">26.0</tspan></text>
      </g>
    </g>
    <g
       id="g34">
      <g
         id="g36"
         clip-path="url(#clipPath40)">
        <path
           d="m 144.54112,45.3125 v 285.924"
           style="fill:none;stroke:#808080;stroke-width:1.5;stroke-linecap:butt;stroke-linejoin:round;stroke-miterlimit:10;stroke-dasharray:1.5, 2.475;stroke-dashoffset:0;stroke-opacity:1"
           id="path42" />
      </g>
    </g>
    <g
       id="g44">
      <path
         d="m 144.54112,45.3125 v -4.8"
         style="fill:#262626;fill-opacity:1;fill-rule:nonzero;stroke:#262626;stroke-width:1;stroke-linecap:butt;stroke-linejoin:round;stroke-miterlimit:10;stroke-dasharray:none;stroke-opacity:1"
         id="path46" />
      <g
         id="g48"
         transform="translate(134.04112,28.684375)">
        <text
           xml:space="preserve"
           transform="scale(1,-1)"
           style="font-variant:normal;font-weight:normal;font-size:12px;font-family:'Times New Roman';-inkscape-font-specification:TimesNewRomanPSMT;writing-mode:lr-tb;fill:#262626;fill-opacity:1;fill-rule:nonzero;stroke:none"
           id="text52"><tspan
             x="0 6 12 15"
             y="0"
             id="tspan50">26.2</tspan></text>
      </g>
    </g>
    <g
       id="g54">
      <g
         id="g56"
         clip-path="url(#clipPath60)">
        <path
           d="m 195.89048,45.3125 v 285.924"
           style="fill:none;stroke:#808080;stroke-width:1.5;stroke-linecap:butt;stroke-linejoin:round;stroke-miterlimit:10;stroke-dasharray:1.5, 2.475;stroke-dashoffset:0;stroke-opacity:1"
           id="path62" />
      </g>
    </g>
    <g
       id="g64">
      <path
         d="m 195.89048,45.3125 v -4.8"
         style="fill:#262626;fill-opacity:1;fill-rule:nonzero;stroke:#262626;stroke-width:1;stroke-linecap:butt;stroke-linejoin:round;stroke-miterlimit:10;stroke-dasharray:none;stroke-opacity:1"
         id="path66" />
      <g
         id="g68"
         transform="translate(185.39048,28.684375)">
        <text
           xml:space="preserve"
           transform="scale(1,-1)"
           style="font-variant:normal;font-weight:normal;font-size:12px;font-family:'Times New Roman';-inkscape-font-specification:TimesNewRomanPSMT;writing-mode:lr-tb;fill:#262626;fill-opacity:1;fill-rule:nonzero;stroke:none"
           id="text72"><tspan
             x="0 6 12 15"
             y="0"
             id="tspan70">26.4</tspan></text>
      </g>
    </g>
    <g
       id="g74">
      <g
         id="g76"
         clip-path="url(#clipPath80)">
        <path
           d="m 247.23983,45.3125 v 285.924"
           style="fill:none;stroke:#808080;stroke-width:1.5;stroke-linecap:butt;stroke-linejoin:round;stroke-miterlimit:10;stroke-dasharray:1.5, 2.475;stroke-dashoffset:0;stroke-opacity:1"
           id="path82" />
      </g>
    </g>
    <g
       id="g84">
      <path
         d="m 247.23983,45.3125 v -4.8"
         style="fill:#262626;fill-opacity:1;fill-rule:nonzero;stroke:#262626;stroke-width:1;stroke-linecap:butt;stroke-linejoin:round;stroke-miterlimit:10;stroke-dasharray:none;stroke-opacity:1"
         id="path86" />
      <g
         id="g88"
         transform="translate(236.73983,28.684375)">
        <text
           xml:space="preserve"
           transform="scale(1,-1)"
           style="font-variant:normal;font-weight:normal;font-size:12px;font-family:'Times New Roman';-inkscape-font-specification:TimesNewRomanPSMT;writing-mode:lr-tb;fill:#262626;fill-opacity:1;fill-rule:nonzero;stroke:none"
           id="text92"><tspan
             x="0 6 12 15"
             y="0"
             id="tspan90">26.6</tspan></text>
      </g>
    </g>
    <g
       id="g94">
      <g
         id="g96"
         clip-path="url(#clipPath100)">
        <path
           d="m 298.58918,45.3125 v 285.924"
           style="fill:none;stroke:#808080;stroke-width:1.5;stroke-linecap:butt;stroke-linejoin:round;stroke-miterlimit:10;stroke-dasharray:1.5, 2.475;stroke-dashoffset:0;stroke-opacity:1"
           id="path102" />
      </g>
    </g>
    <g
       id="g104">
      <path
         d="m 298.58918,45.3125 v -4.8"
         style="fill:#262626;fill-opacity:1;fill-rule:nonzero;stroke:#262626;stroke-width:1;stroke-linecap:butt;stroke-linejoin:round;stroke-miterlimit:10;stroke-dasharray:none;stroke-opacity:1"
         id="path106" />
      <g
         id="g108"
         transform="translate(288.08918,28.684375)">
        <text
           xml:space="preserve"
           transform="scale(1,-1)"
           style="font-variant:normal;font-weight:normal;font-size:12px;font-family:'Times New Roman';-inkscape-font-specification:TimesNewRomanPSMT;writing-mode:lr-tb;fill:#262626;fill-opacity:1;fill-rule:nonzero;stroke:none"
           id="text112"><tspan
             x="0 6 12 15"
             y="0"
             id="tspan110">26.8</tspan></text>
      </g>
    </g>
    <g
       id="g114">
      <g
         id="g116"
         clip-path="url(#clipPath120)">
        <path
           d="m 349.93853,45.3125 v 285.924"
           style="fill:none;stroke:#808080;stroke-width:1.5;stroke-linecap:butt;stroke-linejoin:round;stroke-miterlimit:10;stroke-dasharray:1.5, 2.475;stroke-dashoffset:0;stroke-opacity:1"
           id="path122" />
      </g>
    </g>
    <g
       id="g124">
      <path
         d="m 349.93853,45.3125 v -4.8"
         style="fill:#262626;fill-opacity:1;fill-rule:nonzero;stroke:#262626;stroke-width:1;stroke-linecap:butt;stroke-linejoin:round;stroke-miterlimit:10;stroke-dasharray:none;stroke-opacity:1"
         id="path126" />
      <g
         id="g128"
         transform="translate(339.43853,28.684375)">
        <text
           xml:space="preserve"
           transform="scale(1,-1)"
           style="font-variant:normal;font-weight:normal;font-size:12px;font-family:'Times New Roman';-inkscape-font-specification:TimesNewRomanPSMT;writing-mode:lr-tb;fill:#262626;fill-opacity:1;fill-rule:nonzero;stroke:none"
           id="text132"><tspan
             x="0 6 12 15"
             y="0"
             id="tspan130">27.0</tspan></text>
      </g>
    </g>
    <g
       id="g134">
      <g
         id="g136"
         clip-path="url(#clipPath140)">
        <path
           d="m 401.28789,45.3125 v 285.924"
           style="fill:none;stroke:#808080;stroke-width:1.5;stroke-linecap:butt;stroke-linejoin:round;stroke-miterlimit:10;stroke-dasharray:1.5, 2.475;stroke-dashoffset:0;stroke-opacity:1"
           id="path142" />
      </g>
    </g>
    <g
       id="g144">
      <path
         d="m 401.28789,45.3125 v -4.8"
         style="fill:#262626;fill-opacity:1;fill-rule:nonzero;stroke:#262626;stroke-width:1;stroke-linecap:butt;stroke-linejoin:round;stroke-miterlimit:10;stroke-dasharray:none;stroke-opacity:1"
         id="path146" />
      <g
         id="g148"
         transform="translate(390.78789,28.684375)">
        <text
           xml:space="preserve"
           transform="scale(1,-1)"
           style="font-variant:normal;font-weight:normal;font-size:12px;font-family:'Times New Roman';-inkscape-font-specification:TimesNewRomanPSMT;writing-mode:lr-tb;fill:#262626;fill-opacity:1;fill-rule:nonzero;stroke:none"
           id="text152"><tspan
             x="0 6 12 15"
             y="0"
             id="tspan150">27.2</tspan></text>
      </g>
      <g
         id="g154"
         transform="translate(164.337,10.840625)">
        <text
           xml:space="preserve"
           transform="scale(1,-1)"
           style="font-variant:normal;font-weight:bold;font-size:17px;font-family:'Times New Roman';-inkscape-font-specification:TimesNewRomanPS-BoldMT;writing-mode:lr-tb;fill:#262626;fill-opacity:1;fill-rule:nonzero;stroke:none"
           id="text158"><tspan
             x="0 12.274 23.613001 30.226 39.675499 43.925499 53.377499 60.925499 69.425499 76.676628 84.224625 88.474625 94.135628 105.78462 110.51063 120.30275 125.96375 137.30275 142.02875 150.52875 159.02875"
             y="0"
             id="tspan156">CLIP Score (ViT-L/14)</tspan></text>
      </g>
    </g>
    <g
       id="g160">
      <g
         id="g162"
         clip-path="url(#clipPath166)">
        <path
           d="M 46.421875,87.142305 H 447.09587"
           style="fill:none;stroke:#808080;stroke-width:1.5;stroke-linecap:butt;stroke-linejoin:round;stroke-miterlimit:10;stroke-dasharray:1.5, 2.475;stroke-dashoffset:0;stroke-opacity:1"
           id="path168" />
      </g>
    </g>
    <g
       id="g170">
      <path
         d="m 46.421875,87.142305 h -4.8"
         style="fill:#262626;fill-opacity:1;fill-rule:nonzero;stroke:#262626;stroke-width:1;stroke-linecap:butt;stroke-linejoin:round;stroke-miterlimit:10;stroke-dasharray:none;stroke-opacity:1"
         id="path172" />
      <g
         id="g174"
         transform="translate(26.121875,82.978243)">
        <text
           xml:space="preserve"
           transform="scale(1,-1)"
           style="font-variant:normal;font-weight:normal;font-size:12px;font-family:'Times New Roman';-inkscape-font-specification:TimesNewRomanPSMT;writing-mode:lr-tb;fill:#262626;fill-opacity:1;fill-rule:nonzero;stroke:none"
           id="text178"><tspan
             x="0 6"
             y="0"
             id="tspan176">19</tspan></text>
      </g>
    </g>
    <g
       id="g180">
      <g
         id="g182"
         clip-path="url(#clipPath186)">
        <path
           d="M 46.421875,129.39463 H 447.09587"
           style="fill:none;stroke:#808080;stroke-width:1.5;stroke-linecap:butt;stroke-linejoin:round;stroke-miterlimit:10;stroke-dasharray:1.5, 2.475;stroke-dashoffset:0;stroke-opacity:1"
           id="path188" />
      </g>
    </g>
    <g
       id="g190">
      <path
         d="m 46.421875,129.39463 h -4.8"
         style="fill:#262626;fill-opacity:1;fill-rule:nonzero;stroke:#262626;stroke-width:1;stroke-linecap:butt;stroke-linejoin:round;stroke-miterlimit:10;stroke-dasharray:none;stroke-opacity:1"
         id="path192" />
      <g
         id="g194"
         transform="translate(26.121875,125.23057)">
        <text
           xml:space="preserve"
           transform="scale(1,-1)"
           style="font-variant:normal;font-weight:normal;font-size:12px;font-family:'Times New Roman';-inkscape-font-specification:TimesNewRomanPSMT;writing-mode:lr-tb;fill:#262626;fill-opacity:1;fill-rule:nonzero;stroke:none"
           id="text198"><tspan
             x="0 6"
             y="0"
             id="tspan196">20</tspan></text>
      </g>
    </g>
    <g
       id="g200">
      <g
         id="g202"
         clip-path="url(#clipPath206)">
        <path
           d="M 46.421875,171.64696 H 447.09587"
           style="fill:none;stroke:#808080;stroke-width:1.5;stroke-linecap:butt;stroke-linejoin:round;stroke-miterlimit:10;stroke-dasharray:1.5, 2.475;stroke-dashoffset:0;stroke-opacity:1"
           id="path208" />
      </g>
    </g>
    <g
       id="g210">
      <path
         d="m 46.421875,171.64696 h -4.8"
         style="fill:#262626;fill-opacity:1;fill-rule:nonzero;stroke:#262626;stroke-width:1;stroke-linecap:butt;stroke-linejoin:round;stroke-miterlimit:10;stroke-dasharray:none;stroke-opacity:1"
         id="path212" />
      <g
         id="g214"
         transform="translate(26.121875,167.4829)">
        <text
           xml:space="preserve"
           transform="scale(1,-1)"
           style="font-variant:normal;font-weight:normal;font-size:12px;font-family:'Times New Roman';-inkscape-font-specification:TimesNewRomanPSMT;writing-mode:lr-tb;fill:#262626;fill-opacity:1;fill-rule:nonzero;stroke:none"
           id="text218"><tspan
             x="0 6"
             y="0"
             id="tspan216">21</tspan></text>
      </g>
    </g>
    <g
       id="g220">
      <g
         id="g222"
         clip-path="url(#clipPath226)">
        <path
           d="M 46.421875,213.89929 H 447.09587"
           style="fill:none;stroke:#808080;stroke-width:1.5;stroke-linecap:butt;stroke-linejoin:round;stroke-miterlimit:10;stroke-dasharray:1.5, 2.475;stroke-dashoffset:0;stroke-opacity:1"
           id="path228" />
      </g>
    </g>
    <g
       id="g230">
      <path
         d="m 46.421875,213.89929 h -4.8"
         style="fill:#262626;fill-opacity:1;fill-rule:nonzero;stroke:#262626;stroke-width:1;stroke-linecap:butt;stroke-linejoin:round;stroke-miterlimit:10;stroke-dasharray:none;stroke-opacity:1"
         id="path232" />
      <g
         id="g234"
         transform="translate(26.121875,209.73523)">
        <text
           xml:space="preserve"
           transform="scale(1,-1)"
           style="font-variant:normal;font-weight:normal;font-size:12px;font-family:'Times New Roman';-inkscape-font-specification:TimesNewRomanPSMT;writing-mode:lr-tb;fill:#262626;fill-opacity:1;fill-rule:nonzero;stroke:none"
           id="text238"><tspan
             x="0 6"
             y="0"
             id="tspan236">22</tspan></text>
      </g>
    </g>
    <g
       id="g240">
      <g
         id="g242"
         clip-path="url(#clipPath246)">
        <path
           d="M 46.421875,256.15162 H 447.09587"
           style="fill:none;stroke:#808080;stroke-width:1.5;stroke-linecap:butt;stroke-linejoin:round;stroke-miterlimit:10;stroke-dasharray:1.5, 2.475;stroke-dashoffset:0;stroke-opacity:1"
           id="path248" />
      </g>
    </g>
    <g
       id="g250">
      <path
         d="m 46.421875,256.15162 h -4.8"
         style="fill:#262626;fill-opacity:1;fill-rule:nonzero;stroke:#262626;stroke-width:1;stroke-linecap:butt;stroke-linejoin:round;stroke-miterlimit:10;stroke-dasharray:none;stroke-opacity:1"
         id="path252" />
      <g
         id="g254"
         transform="translate(26.121875,251.98756)">
        <text
           xml:space="preserve"
           transform="scale(1,-1)"
           style="font-variant:normal;font-weight:normal;font-size:12px;font-family:'Times New Roman';-inkscape-font-specification:TimesNewRomanPSMT;writing-mode:lr-tb;fill:#262626;fill-opacity:1;fill-rule:nonzero;stroke:none"
           id="text258"><tspan
             x="0 6"
             y="0"
             id="tspan256">23</tspan></text>
      </g>
    </g>
    <g
       id="g260">
      <g
         id="g262"
         clip-path="url(#clipPath266)">
        <path
           d="M 46.421875,298.40395 H 447.09587"
           style="fill:none;stroke:#808080;stroke-width:1.5;stroke-linecap:butt;stroke-linejoin:round;stroke-miterlimit:10;stroke-dasharray:1.5, 2.475;stroke-dashoffset:0;stroke-opacity:1"
           id="path268" />
      </g>
    </g>
    <g
       id="g270">
      <path
         d="m 46.421875,298.40395 h -4.8"
         style="fill:#262626;fill-opacity:1;fill-rule:nonzero;stroke:#262626;stroke-width:1;stroke-linecap:butt;stroke-linejoin:round;stroke-miterlimit:10;stroke-dasharray:none;stroke-opacity:1"
         id="path272" />
      <g
         id="g274"
         transform="translate(26.121875,294.23989)">
        <text
           xml:space="preserve"
           transform="scale(1,-1)"
           style="font-variant:normal;font-weight:normal;font-size:12px;font-family:'Times New Roman';-inkscape-font-specification:TimesNewRomanPSMT;writing-mode:lr-tb;fill:#262626;fill-opacity:1;fill-rule:nonzero;stroke:none"
           id="text278"><tspan
             x="0 6"
             y="0"
             id="tspan276">24</tspan></text>
      </g>
      <g
         id="g280"
         transform="rotate(90,-54.982562,73.463812)">
        <text
           xml:space="preserve"
           transform="scale(1,-1)"
           style="font-variant:normal;font-weight:bold;font-size:17px;font-family:'Times New Roman';-inkscape-font-specification:TimesNewRomanPS-BoldMT;writing-mode:lr-tb;fill:#262626;fill-opacity:1;fill-rule:nonzero;stroke:none"
           id="text284"><tspan
             x="0 10.387 17 29.274 33.523998 42.976002 50.523998 59.023998 66.275124 73.823128 78.073128 83.734123 92.234123 100.73412 113.96013"
             y="0"
             id="tspan282">FID Score (10K)</tspan></text>
      </g>
    </g>
    <g
       id="g286">
      <g
         id="g288"
         clip-path="url(#clipPath292)">
        <path
           d="M 64.63433,318.12607 332.34619,73.859935 391.32787,137.167 l 29.95958,107.82138 1.65484,27.30804 -16.1214,24.43549 -4.62702,-9.37651 3.00481,-1.05481"
           style="fill:none;stroke:#0173b2;stroke-width:1.2;stroke-linecap:round;stroke-linejoin:round;stroke-miterlimit:10;stroke-dasharray:none;stroke-opacity:1"
           id="path294" />
        <g
           id="g296"
           transform="translate(64.63433,318.12607)">
          <g
             id="g298">
            <g
               id="g300"
               clip-path="url(#clipPath304)">
              <path
                 d="m 0,-2.4 c 0.636487,0 1.246992,0.252879 1.697056,0.702944 C 2.147121,-1.246992 2.4,-0.636487 2.4,0 2.4,0.636487 2.147121,1.246992 1.697056,1.697056 1.246992,2.147121 0.636487,2.4 0,2.4 -0.636487,2.4 -1.246992,2.147121 -1.697056,1.697056 -2.147121,1.246992 -2.4,0.636487 -2.4,0 c 0,-0.636487 0.252879,-1.246992 0.702944,-1.697056 C -1.246992,-2.147121 -0.636487,-2.4 0,-2.4 Z"
                 style="fill:#0173b2;fill-opacity:1;fill-rule:nonzero;stroke:#0173b2;stroke-width:1;stroke-linecap:butt;stroke-linejoin:round;stroke-miterlimit:10;stroke-dasharray:none;stroke-opacity:1"
                 id="path306" />
            </g>
          </g>
          <g
             id="g308"
             transform="translate(267.71186,-244.26614)">
            <g
               id="g310">
              <g
                 id="g312"
                 clip-path="url(#clipPath316)">
                <path
                   d="m 0,-2.4 c 0.636487,0 1.246992,0.252879 1.697056,0.702944 C 2.147121,-1.246992 2.4,-0.636487 2.4,0 2.4,0.636487 2.147121,1.246992 1.697056,1.697056 1.246992,2.147121 0.636487,2.4 0,2.4 -0.636487,2.4 -1.246992,2.147121 -1.697056,1.697056 -2.147121,1.246992 -2.4,0.636487 -2.4,0 c 0,-0.636487 0.252879,-1.246992 0.702944,-1.697056 C -1.246992,-2.147121 -0.636487,-2.4 0,-2.4 Z"
                   style="fill:#0173b2;fill-opacity:1;fill-rule:nonzero;stroke:#0173b2;stroke-width:1;stroke-linecap:butt;stroke-linejoin:round;stroke-miterlimit:10;stroke-dasharray:none;stroke-opacity:1"
                   id="path318" />
              </g>
            </g>
            <g
               id="g320"
               transform="translate(58.981686,63.307068)">
              <g
                 id="g322">
                <g
                   id="g324"
                   clip-path="url(#clipPath328)">
                  <path
                     d="m 0,-2.4 c 0.636487,0 1.246992,0.252879 1.697056,0.702944 C 2.147121,-1.246992 2.4,-0.636487 2.4,0 2.4,0.636487 2.147121,1.246992 1.697056,1.697056 1.246992,2.147121 0.636487,2.4 0,2.4 -0.636487,2.4 -1.246992,2.147121 -1.697056,1.697056 -2.147121,1.246992 -2.4,0.636487 -2.4,0 c 0,-0.636487 0.252879,-1.246992 0.702944,-1.697056 C -1.246992,-2.147121 -0.636487,-2.4 0,-2.4 Z"
                     style="fill:#0173b2;fill-opacity:1;fill-rule:nonzero;stroke:#0173b2;stroke-width:1;stroke-linecap:butt;stroke-linejoin:round;stroke-miterlimit:10;stroke-dasharray:none;stroke-opacity:1"
                     id="path330" />
                </g>
              </g>
              <g
                 id="g332"
                 transform="translate(29.959572,107.82138)">
                <g
                   id="g334">
                  <g
                     id="g336"
                     clip-path="url(#clipPath340)">
                    <path
                       d="m 0,-2.4 c 0.636487,0 1.246992,0.252879 1.697056,0.702944 C 2.147121,-1.246992 2.4,-0.636487 2.4,0 2.4,0.636487 2.147121,1.246992 1.697056,1.697056 1.246992,2.147121 0.636487,2.4 0,2.4 -0.636487,2.4 -1.246992,2.147121 -1.697056,1.697056 -2.147121,1.246992 -2.4,0.636487 -2.4,0 c 0,-0.636487 0.252879,-1.246992 0.702944,-1.697056 C -1.246992,-2.147121 -0.636487,-2.4 0,-2.4 Z"
                       style="fill:#0173b2;fill-opacity:1;fill-rule:nonzero;stroke:#0173b2;stroke-width:1;stroke-linecap:butt;stroke-linejoin:round;stroke-miterlimit:10;stroke-dasharray:none;stroke-opacity:1"
                       id="path342" />
                  </g>
                </g>
                <g
                   id="g344"
                   transform="translate(1.6548417,27.308041)">
                  <g
                     id="g346">
                    <g
                       id="g348"
                       clip-path="url(#clipPath352)">
                      <path
                         d="m 0,-2.4 c 0.636487,0 1.246992,0.252879 1.697056,0.702944 C 2.147121,-1.246992 2.4,-0.636487 2.4,0 2.4,0.636487 2.147121,1.246992 1.697056,1.697056 1.246992,2.147121 0.636487,2.4 0,2.4 -0.636487,2.4 -1.246992,2.147121 -1.697056,1.697056 -2.147121,1.246992 -2.4,0.636487 -2.4,0 c 0,-0.636487 0.252879,-1.246992 0.702944,-1.697056 C -1.246992,-2.147121 -0.636487,-2.4 0,-2.4 Z"
                         style="fill:#0173b2;fill-opacity:1;fill-rule:nonzero;stroke:#0173b2;stroke-width:1;stroke-linecap:butt;stroke-linejoin:round;stroke-miterlimit:10;stroke-dasharray:none;stroke-opacity:1"
                         id="path354" />
                    </g>
                  </g>
                  <g
                     id="g356"
                     transform="translate(-16.121398,24.43549)">
                    <g
                       id="g358">
                      <g
                         id="g360"
                         clip-path="url(#clipPath364)">
                        <path
                           d="m 0,-2.4 c 0.636487,0 1.246992,0.252879 1.697056,0.702944 C 2.147121,-1.246992 2.4,-0.636487 2.4,0 2.4,0.636487 2.147121,1.246992 1.697056,1.697056 1.246992,2.147121 0.636487,2.4 0,2.4 -0.636487,2.4 -1.246992,2.147121 -1.697056,1.697056 -2.147121,1.246992 -2.4,0.636487 -2.4,0 c 0,-0.636487 0.252879,-1.246992 0.702944,-1.697056 C -1.246992,-2.147121 -0.636487,-2.4 0,-2.4 Z"
                           style="fill:#0173b2;fill-opacity:1;fill-rule:nonzero;stroke:#0173b2;stroke-width:1;stroke-linecap:butt;stroke-linejoin:round;stroke-miterlimit:10;stroke-dasharray:none;stroke-opacity:1"
                           id="path366" />
                      </g>
                    </g>
                    <g
                       id="g368"
                       transform="translate(-4.6270228,-9.376511)">
                      <g
                         id="g370">
                        <g
                           id="g372"
                           clip-path="url(#clipPath376)">
                          <path
                             d="m 0,-2.4 c 0.636487,0 1.246992,0.252879 1.697056,0.702944 C 2.147121,-1.246992 2.4,-0.636487 2.4,0 2.4,0.636487 2.147121,1.246992 1.697056,1.697056 1.246992,2.147121 0.636487,2.4 0,2.4 -0.636487,2.4 -1.246992,2.147121 -1.697056,1.697056 -2.147121,1.246992 -2.4,0.636487 -2.4,0 c 0,-0.636487 0.252879,-1.246992 0.702944,-1.697056 C -1.246992,-2.147121 -0.636487,-2.4 0,-2.4 Z"
                             style="fill:#0173b2;fill-opacity:1;fill-rule:nonzero;stroke:#0173b2;stroke-width:1;stroke-linecap:butt;stroke-linejoin:round;stroke-miterlimit:10;stroke-dasharray:none;stroke-opacity:1"
                             id="path378" />
                        </g>
                      </g>
                      <g
                         id="g380"
                         transform="translate(3.0048113,-1.0548084)">
                        <g
                           id="g382">
                          <g
                             id="g384"
                             clip-path="url(#clipPath388)">
                            <path
                               d="m 0,-2.4 c 0.636487,0 1.246992,0.252879 1.697056,0.702944 C 2.147121,-1.246992 2.4,-0.636487 2.4,0 2.4,0.636487 2.147121,1.246992 1.697056,1.697056 1.246992,2.147121 0.636487,2.4 0,2.4 -0.636487,2.4 -1.246992,2.147121 -1.697056,1.697056 -2.147121,1.246992 -2.4,0.636487 -2.4,0 c 0,-0.636487 0.252879,-1.246992 0.702944,-1.697056 C -1.246992,-2.147121 -0.636487,-2.4 0,-2.4 Z"
                               style="fill:#0173b2;fill-opacity:1;fill-rule:nonzero;stroke:#0173b2;stroke-width:1;stroke-linecap:butt;stroke-linejoin:round;stroke-miterlimit:10;stroke-dasharray:none;stroke-opacity:1"
                               id="path390" />
                          </g>
                        </g>
                      </g>
                    </g>
                  </g>
                </g>
              </g>
            </g>
          </g>
        </g>
      </g>
    </g>
    <g
       id="g392">
      <g
         id="g394"
         clip-path="url(#clipPath398)">
        <path
           d="m 170.45132,275.16786 200.31412,-219.25034 42.54557,67.74515 12.98852,57.48876 2.58389,15.14628 -15.82606,20.01819 -34.681,-14.7194 -4.05453,33.81224"
           style="fill:none;stroke:#de8f05;stroke-width:1.2;stroke-linecap:round;stroke-linejoin:round;stroke-miterlimit:10;stroke-dasharray:none;stroke-opacity:1"
           id="path400" />
        <g
           id="g402"
           transform="translate(170.45132,275.16786)">
          <g
             id="g404">
            <g
               id="g406"
               clip-path="url(#clipPath410)">
              <path
                 d="m 0,-2.4 c 0.636487,0 1.246992,0.252879 1.697056,0.702944 C 2.147121,-1.246992 2.4,-0.636487 2.4,0 2.4,0.636487 2.147121,1.246992 1.697056,1.697056 1.246992,2.147121 0.636487,2.4 0,2.4 -0.636487,2.4 -1.246992,2.147121 -1.697056,1.697056 -2.147121,1.246992 -2.4,0.636487 -2.4,0 c 0,-0.636487 0.252879,-1.246992 0.702944,-1.697056 C -1.246992,-2.147121 -0.636487,-2.4 0,-2.4 Z"
                 style="fill:#de8f05;fill-opacity:1;fill-rule:nonzero;stroke:#de8f05;stroke-width:1;stroke-linecap:butt;stroke-linejoin:round;stroke-miterlimit:10;stroke-dasharray:none;stroke-opacity:1"
                 id="path412" />
            </g>
          </g>
          <g
             id="g414"
             transform="translate(200.31412,-219.25034)">
            <g
               id="g416">
              <g
                 id="g418"
                 clip-path="url(#clipPath422)">
                <path
                   d="m 0,-2.4 c 0.636487,0 1.246992,0.252879 1.697056,0.702944 C 2.147121,-1.246992 2.4,-0.636487 2.4,0 2.4,0.636487 2.147121,1.246992 1.697056,1.697056 1.246992,2.147121 0.636487,2.4 0,2.4 -0.636487,2.4 -1.246992,2.147121 -1.697056,1.697056 -2.147121,1.246992 -2.4,0.636487 -2.4,0 c 0,-0.636487 0.252879,-1.246992 0.702944,-1.697056 C -1.246992,-2.147121 -0.636487,-2.4 0,-2.4 Z"
                   style="fill:#de8f05;fill-opacity:1;fill-rule:nonzero;stroke:#de8f05;stroke-width:1;stroke-linecap:butt;stroke-linejoin:round;stroke-miterlimit:10;stroke-dasharray:none;stroke-opacity:1"
                   id="path424" />
              </g>
            </g>
            <g
               id="g426"
               transform="translate(42.545564,67.745146)">
              <g
                 id="g428">
                <g
                   id="g430"
                   clip-path="url(#clipPath434)">
                  <path
                     d="m 0,-2.4 c 0.636487,0 1.246992,0.252879 1.697056,0.702944 C 2.147121,-1.246992 2.4,-0.636487 2.4,0 2.4,0.636487 2.147121,1.246992 1.697056,1.697056 1.246992,2.147121 0.636487,2.4 0,2.4 -0.636487,2.4 -1.246992,2.147121 -1.697056,1.697056 -2.147121,1.246992 -2.4,0.636487 -2.4,0 c 0,-0.636487 0.252879,-1.246992 0.702944,-1.697056 C -1.246992,-2.147121 -0.636487,-2.4 0,-2.4 Z"
                     style="fill:#de8f05;fill-opacity:1;fill-rule:nonzero;stroke:#de8f05;stroke-width:1;stroke-linecap:butt;stroke-linejoin:round;stroke-miterlimit:10;stroke-dasharray:none;stroke-opacity:1"
                     id="path436" />
                </g>
              </g>
              <g
                 id="g438"
                 transform="translate(12.988521,57.488763)">
                <g
                   id="g440">
                  <g
                     id="g442"
                     clip-path="url(#clipPath446)">
                    <path
                       d="m 0,-2.4 c 0.636487,0 1.246992,0.252879 1.697056,0.702944 C 2.147121,-1.246992 2.4,-0.636487 2.4,0 2.4,0.636487 2.147121,1.246992 1.697056,1.697056 1.246992,2.147121 0.636487,2.4 0,2.4 -0.636487,2.4 -1.246992,2.147121 -1.697056,1.697056 -2.147121,1.246992 -2.4,0.636487 -2.4,0 c 0,-0.636487 0.252879,-1.246992 0.702944,-1.697056 C -1.246992,-2.147121 -0.636487,-2.4 0,-2.4 Z"
                       style="fill:#de8f05;fill-opacity:1;fill-rule:nonzero;stroke:#de8f05;stroke-width:1;stroke-linecap:butt;stroke-linejoin:round;stroke-miterlimit:10;stroke-dasharray:none;stroke-opacity:1"
                       id="path448" />
                  </g>
                </g>
                <g
                   id="g450"
                   transform="translate(2.583891,15.146278)">
                  <g
                     id="g452">
                    <g
                       id="g454"
                       clip-path="url(#clipPath458)">
                      <path
                         d="m 0,-2.4 c 0.636487,0 1.246992,0.252879 1.697056,0.702944 C 2.147121,-1.246992 2.4,-0.636487 2.4,0 2.4,0.636487 2.147121,1.246992 1.697056,1.697056 1.246992,2.147121 0.636487,2.4 0,2.4 -0.636487,2.4 -1.246992,2.147121 -1.697056,1.697056 -2.147121,1.246992 -2.4,0.636487 -2.4,0 c 0,-0.636487 0.252879,-1.246992 0.702944,-1.697056 C -1.246992,-2.147121 -0.636487,-2.4 0,-2.4 Z"
                         style="fill:#de8f05;fill-opacity:1;fill-rule:nonzero;stroke:#de8f05;stroke-width:1;stroke-linecap:butt;stroke-linejoin:round;stroke-miterlimit:10;stroke-dasharray:none;stroke-opacity:1"
                         id="path460" />
                    </g>
                  </g>
                  <g
                     id="g462"
                     transform="translate(-15.826062,20.018192)">
                    <g
                       id="g464">
                      <g
                         id="g466"
                         clip-path="url(#clipPath470)">
                        <path
                           d="m 0,-2.4 c 0.636487,0 1.246992,0.252879 1.697056,0.702944 C 2.147121,-1.246992 2.4,-0.636487 2.4,0 2.4,0.636487 2.147121,1.246992 1.697056,1.697056 1.246992,2.147121 0.636487,2.4 0,2.4 -0.636487,2.4 -1.246992,2.147121 -1.697056,1.697056 -2.147121,1.246992 -2.4,0.636487 -2.4,0 c 0,-0.636487 0.252879,-1.246992 0.702944,-1.697056 C -1.246992,-2.147121 -0.636487,-2.4 0,-2.4 Z"
                           style="fill:#de8f05;fill-opacity:1;fill-rule:nonzero;stroke:#de8f05;stroke-width:1;stroke-linecap:butt;stroke-linejoin:round;stroke-miterlimit:10;stroke-dasharray:none;stroke-opacity:1"
                           id="path472" />
                      </g>
                    </g>
                    <g
                       id="g474"
                       transform="translate(-34.680999,-14.7194)">
                      <g
                         id="g476">
                        <g
                           id="g478"
                           clip-path="url(#clipPath482)">
                          <path
                             d="m 0,-2.4 c 0.636487,0 1.246992,0.252879 1.697056,0.702944 C 2.147121,-1.246992 2.4,-0.636487 2.4,0 2.4,0.636487 2.147121,1.246992 1.697056,1.697056 1.246992,2.147121 0.636487,2.4 0,2.4 -0.636487,2.4 -1.246992,2.147121 -1.697056,1.697056 -2.147121,1.246992 -2.4,0.636487 -2.4,0 c 0,-0.636487 0.252879,-1.246992 0.702944,-1.697056 C -1.246992,-2.147121 -0.636487,-2.4 0,-2.4 Z"
                             style="fill:#de8f05;fill-opacity:1;fill-rule:nonzero;stroke:#de8f05;stroke-width:1;stroke-linecap:butt;stroke-linejoin:round;stroke-miterlimit:10;stroke-dasharray:none;stroke-opacity:1"
                             id="path484" />
                        </g>
                      </g>
                      <g
                         id="g486"
                         transform="translate(-4.05453,33.812243)">
                        <g
                           id="g488">
                          <g
                             id="g490"
                             clip-path="url(#clipPath494)">
                            <path
                               d="m 0,-2.4 c 0.636487,0 1.246992,0.252879 1.697056,0.702944 C 2.147121,-1.246992 2.4,-0.636487 2.4,0 2.4,0.636487 2.147121,1.246992 1.697056,1.697056 1.246992,2.147121 0.636487,2.4 0,2.4 -0.636487,2.4 -1.246992,2.147121 -1.697056,1.697056 -2.147121,1.246992 -2.4,0.636487 -2.4,0 c 0,-0.636487 0.252879,-1.246992 0.702944,-1.697056 C -1.246992,-2.147121 -0.636487,-2.4 0,-2.4 Z"
                               style="fill:#de8f05;fill-opacity:1;fill-rule:nonzero;stroke:#de8f05;stroke-width:1;stroke-linecap:butt;stroke-linejoin:round;stroke-miterlimit:10;stroke-dasharray:none;stroke-opacity:1"
                               id="path496" />
                          </g>
                        </g>
                      </g>
                    </g>
                  </g>
                </g>
              </g>
            </g>
          </g>
        </g>
      </g>
    </g>
    <g
       id="g498">
      <path
         d="m 46.421875,45.3125 v 285.924"
         style="fill:none;stroke:#cccccc;stroke-width:1;stroke-linecap:square;stroke-linejoin:miter;stroke-miterlimit:10;stroke-dasharray:none;stroke-opacity:1"
         id="path500" />
      <path
         d="m 447.09587,45.3125 v 285.924"
         style="fill:none;stroke:#cccccc;stroke-width:1;stroke-linecap:square;stroke-linejoin:miter;stroke-miterlimit:10;stroke-dasharray:none;stroke-opacity:1"
         id="path502" />
      <path
         d="M 46.421875,45.3125 H 447.09587"
         style="fill:none;stroke:#cccccc;stroke-width:1;stroke-linecap:square;stroke-linejoin:miter;stroke-miterlimit:10;stroke-dasharray:none;stroke-opacity:1"
         id="path504" />
      <path
         d="M 46.421875,331.2365 H 447.09587"
         style="fill:none;stroke:#cccccc;stroke-width:1;stroke-linecap:square;stroke-linejoin:miter;stroke-miterlimit:10;stroke-dasharray:none;stroke-opacity:1"
         id="path506" />
      <path
         d="m 57.621875,53.3125 h 95.668745 c 2.13334,0 3.2,1.066667 3.2,3.2 v 43.675 c 0,2.13333 -1.06666,3.2 -3.2,3.2 H 57.621875 c -2.133333,0 -3.2,-1.06667 -3.2,-3.2 v -43.675 c 0,-2.133333 1.066667,-3.2 3.2,-3.2 z"
         style="fill:#ffffff;fill-opacity:0.8;fill-rule:nonzero;stroke:#cccccc;stroke-width:0.8;stroke-linecap:butt;stroke-linejoin:miter;stroke-miterlimit:10;stroke-dasharray:none;stroke-opacity:0.8"
         id="path508" />
      <path
         d="m 60.821875,91.3875 h 16 16"
         style="fill:none;stroke:#0173b2;stroke-width:1.2;stroke-linecap:round;stroke-linejoin:round;stroke-miterlimit:10;stroke-dasharray:none;stroke-opacity:1"
         id="path510" />
      <path
         d="m 76.821875,88.9875 c 0.636487,0 1.246992,0.252879 1.697056,0.702944 0.450065,0.450064 0.702944,1.060569 0.702944,1.697056 0,0.636487 -0.252879,1.246992 -0.702944,1.697056 -0.450064,0.450065 -1.060569,0.702944 -1.697056,0.702944 -0.636487,0 -1.246992,-0.252879 -1.697056,-0.702944 -0.450065,-0.450064 -0.702944,-1.060569 -0.702944,-1.697056 0,-0.636487 0.252879,-1.246992 0.702944,-1.697056 0.450064,-0.450065 1.060569,-0.702944 1.697056,-0.702944 z"
         style="fill:#0173b2;fill-opacity:1;fill-rule:nonzero;stroke:#0173b2;stroke-width:1;stroke-linecap:butt;stroke-linejoin:round;stroke-miterlimit:10;stroke-dasharray:none;stroke-opacity:1"
         id="path512" />
      <g
         id="g514"
         transform="translate(105.62187,85.7875)">
        <text
           xml:space="preserve"
           transform="scale(1,-1)"
           style="font-variant:normal;font-weight:normal;font-size:16px;font-family:'Times New Roman';-inkscape-font-specification:TimesNewRomanPSMT;writing-mode:lr-tb;fill:#262626;fill-opacity:1;fill-rule:nonzero;stroke:none"
           id="text518"><tspan
             x="0 8.8959999 20.448 24.448 32.448002 36.448002"
             y="0"
             id="tspan516">SD 1.5</tspan></text>
      </g>
      <path
         d="m 60.821875,68.765625 h 16 16"
         style="fill:none;stroke:#de8f05;stroke-width:1.2;stroke-linecap:round;stroke-linejoin:round;stroke-miterlimit:10;stroke-dasharray:none;stroke-opacity:1"
         id="path520" />
      <path
         d="m 76.821875,66.365625 c 0.636487,0 1.246992,0.252879 1.697056,0.702944 0.450065,0.450064 0.702944,1.060569 0.702944,1.697056 0,0.636487 -0.252879,1.246992 -0.702944,1.697056 -0.450064,0.450065 -1.060569,0.702944 -1.697056,0.702944 -0.636487,0 -1.246992,-0.252879 -1.697056,-0.702944 -0.450065,-0.450064 -0.702944,-1.060569 -0.702944,-1.697056 0,-0.636487 0.252879,-1.246992 0.702944,-1.697056 0.450064,-0.450065 1.060569,-0.702944 1.697056,-0.702944 z"
         style="fill:#de8f05;fill-opacity:1;fill-rule:nonzero;stroke:#de8f05;stroke-width:1;stroke-linecap:butt;stroke-linejoin:round;stroke-miterlimit:10;stroke-dasharray:none;stroke-opacity:1"
         id="path522" />
      <g
         id="g524"
         transform="translate(105.62187,63.165625)">
        <text
           xml:space="preserve"
           transform="scale(1,-1)"
           style="font-variant:normal;font-weight:normal;font-size:16px;font-family:'Times New Roman';-inkscape-font-specification:TimesNewRomanPSMT;writing-mode:lr-tb;fill:#262626;fill-opacity:1;fill-rule:nonzero;stroke:none"
           id="text528"><tspan
             x="0 8.8959999 13.344 21.344 25.792 33.792"
             y="0"
             id="tspan526">Stylus</tspan></text>
      </g>
    </g>
  </g>
</svg>
